<?xml version="1.0" standalone="no"?><!DOCTYPE svg PUBLIC "-//W3C//DTD SVG 1.1//EN" "http://www.w3.org/Graphics/SVG/1.1/DTD/svg11.dtd">
@font-face { font-family: feedback-iconfont; src: url("//at.alicdn.com/t/font_1031158_1uhr8ri0pk5.eot?#iefix") format("embedded-opentype"), url("//at.alicdn.com/t/font_1031158_1uhr8ri0pk5.woff2") format("woff2"), url("//at.alicdn.com/t/font_1031158_1uhr8ri0pk5.woff") format("woff"), url("//at.alicdn.com/t/font_1031158_1uhr8ri0pk5.ttf") format("truetype"), url("//at.alicdn.com/t/font_1031158_1uhr8ri0pk5.svg#iconfont") format("svg"); }
<svg  class="icon" viewBox="0 0 1024 1024" version="1.1" xmlns="http://www.w3.org/2000/svg"  xmlns:xlink="http://www.w3.org/1999/xlink" width="16" height="16"><defs><style type="text/css">
</style></defs><path d="M640 426.666667m-42.666667 0a42.666667 42.666667 0 1 0 85.333334 0 42.666667 42.666667 0 1 0-85.333334 0Z"  fill="#000000"></path><path d="M426.666667 426.666667m-42.666667 0a42.666667 42.666667 0 1 0 85.333333 0 42.666667 42.666667 0 1 0-85.333333 0Z" fill="#000000"></path><path d="M853.333333 1024a128.128 128.128 0 0 1-128-128 42.666667 42.666667 0 0 0-85.333333 0 128 128 0 0 1-256 0 42.666667 42.666667 0 0 0-85.333333 0 128 128 0 0 1-256 0 42.666667 42.666667 0 0 1 85.333333 0 42.666667 42.666667 0 0 0 85.333333 0 128 128 0 0 1 256 0 42.666667 42.666667 0 0 0 85.333334 0 128 128 0 0 1 256 0 42.666667 42.666667 0 0 0 85.333333 0V469.333333a384 384 0 0 0-768 0v245.333334a42.666667 42.666667 0 0 1-85.333333 0V469.333333a469.333333 469.333333 0 0 1 938.666666 0v426.666667a128.128 128.128 0 0 1-128 128z"  fill="#000000"></path></svg>