<?xml version="1.0" standalone="no"?><!DOCTYPE svg PUBLIC "-//W3C//DTD SVG 1.1//EN" "http://www.w3.org/Graphics/SVG/1.1/DTD/svg11.dtd"><svg t="1626854443633" class="icon" viewBox="0 0 1026 1024" version="1.1" xmlns="http://www.w3.org/2000/svg" p-id="3058" xmlns:xlink="http://www.w3.org/1999/xlink" width="32.0625" height="32"><defs><style type="text/css">@font-face { font-family: feedback-iconfont; src: url("//at.alicdn.com/t/font_1031158_1uhr8ri0pk5.eot?#iefix") format("embedded-opentype"), url("//at.alicdn.com/t/font_1031158_1uhr8ri0pk5.woff2") format("woff2"), url("//at.alicdn.com/t/font_1031158_1uhr8ri0pk5.woff") format("woff"), url("//at.alicdn.com/t/font_1031158_1uhr8ri0pk5.ttf") format("truetype"), url("//at.alicdn.com/t/font_1031158_1uhr8ri0pk5.svg#iconfont") format("svg"); }
</style></defs><path d="M1011.352931 891.097678l-120.286695 120.414434a42.579361 42.579361 0 0 1-60.249796 0L550.005552 730.828963a384.214866 384.214866 0 1 1 180.749389-180.66423l280.59799 280.704439a42.260016 42.260016 0 0 1 0 60.228506zM385.223424 87.241918a298.055529 298.055529 0 1 0 298.055529 298.055528A298.055529 298.055529 0 0 0 385.223424 87.241918z m299.33291 537.096062a394.880996 394.880996 0 0 1-60.249796 60.207217l146.260106 146.323975 60.249796-60.207217z m176.278555 176.427584l-60.249796 60.207216 60.249796 60.228507 60.249797-60.228507zM385.223424 640.773614a255.476167 255.476167 0 1 1 255.476168-255.476168 255.476167 255.476167 0 0 1-255.476168 255.476168z m0-468.372974a212.896806 212.896806 0 1 0 212.896807 212.896806A212.896806 212.896806 0 0 0 385.223424 172.40064z" p-id="3059"></path></svg>