<?xml version="1.0" standalone="no"?><!DOCTYPE svg PUBLIC "-//W3C//DTD SVG 1.1//EN" "http://www.w3.org/Graphics/SVG/1.1/DTD/svg11.dtd"><svg t="1626854465221" class="icon" viewBox="0 0 1024 1024" version="1.1" xmlns="http://www.w3.org/2000/svg" p-id="3313" xmlns:xlink="http://www.w3.org/1999/xlink" width="32" height="32"><defs><style type="text/css">@font-face { font-family: feedback-iconfont; src: url("//at.alicdn.com/t/font_1031158_1uhr8ri0pk5.eot?#iefix") format("embedded-opentype"), url("//at.alicdn.com/t/font_1031158_1uhr8ri0pk5.woff2") format("woff2"), url("//at.alicdn.com/t/font_1031158_1uhr8ri0pk5.woff") format("woff"), url("//at.alicdn.com/t/font_1031158_1uhr8ri0pk5.ttf") format("truetype"), url("//at.alicdn.com/t/font_1031158_1uhr8ri0pk5.svg#iconfont") format("svg"); }
</style></defs><path d="M981.333333 554.666667h-130.922666A212.522667 212.522667 0 0 0 853.333333 512a343.914667 343.914667 0 0 0-2.922666-42.666667H981.333333a42.666667 42.666667 0 0 1 0 85.333334z m-199.914666-251.733334a203.2 203.2 0 0 0-28.074667-32.213333 350.613333 350.613333 0 0 0-32.213333-28.16l92.544-92.586667a42.666667 42.666667 0 1 1 60.330666 60.373334zM469.333333 173.653333V42.666667a42.666667 42.666667 0 0 1 85.333334 0v130.986666A210.922667 210.922667 0 0 0 512 170.666667a312.896 312.896 0 0 0-42.666667 2.986666zM242.538667 302.933333l-92.586667-92.586666a42.666667 42.666667 0 1 1 60.330667-60.373334l92.586666 92.586667a359.509333 359.509333 0 0 0-32.234666 28.16 314.432 314.432 0 0 0-28.096 32.213333zM170.666667 512a343.914667 343.914667 0 0 0 2.922666 42.666667H42.666667a42.666667 42.666667 0 0 1 0-85.333334h130.922666A343.914667 343.914667 0 0 0 170.666667 512z m71.872 209.066667a205.056 205.056 0 0 0 28.053333 32.213333 194.282667 194.282667 0 0 0 32.32 28.16l-92.672 92.586667a42.666667 42.666667 0 0 1-60.288-60.373334zM554.666667 850.346667V981.333333a42.666667 42.666667 0 0 1-85.333334 0v-130.986666a210.282667 210.282667 0 0 0 42.666667 2.986666 195.690667 195.690667 0 0 0 42.666667-2.986666zM512 810.666667a298.666667 298.666667 0 1 1 298.666667-298.666667 298.666667 298.666667 0 0 1-298.666667 298.666667z m0-512a213.333333 213.333333 0 1 0 213.333333 213.333333 213.333333 213.333333 0 0 0-213.333333-213.333333z m0 85.333333v-42.666667a170.666667 170.666667 0 0 1 170.666667 170.666667h-42.666667a128 128 0 0 0-128-128z m269.418667 337.066667l92.629333 92.586666a42.688 42.688 0 1 1-60.373333 60.373334l-92.544-92.586667a199.637333 199.637333 0 0 0 32.213333-28.16 322.133333 322.133333 0 0 0 28.074667-32.213333z" p-id="3314" fill="#2c2c2c"></path></svg>