<?xml version="1.0" standalone="no"?><!DOCTYPE svg PUBLIC "-//W3C//DTD SVG 1.1//EN" "http://www.w3.org/Graphics/SVG/1.1/DTD/svg11.dtd"><svg t="1626876418483" class="icon" viewBox="0 0 1024 1024" version="1.1" xmlns="http://www.w3.org/2000/svg" p-id="817" width="16" height="16" xmlns:xlink="http://www.w3.org/1999/xlink"><defs><style type="text/css">@font-face { font-family: feedback-iconfont; src: url("//at.alicdn.com/t/font_1031158_1uhr8ri0pk5.eot?#iefix") format("embedded-opentype"), url("//at.alicdn.com/t/font_1031158_1uhr8ri0pk5.woff2") format("woff2"), url("//at.alicdn.com/t/font_1031158_1uhr8ri0pk5.woff") format("woff"), url("//at.alicdn.com/t/font_1031158_1uhr8ri0pk5.ttf") format("truetype"), url("//at.alicdn.com/t/font_1031158_1uhr8ri0pk5.svg#iconfont") format("svg"); }
</style></defs><path d="M511.8871 992.839691c-123.286439 0-246.347078-46.966262-340.053803-140.672988-187.63925-187.63925-187.63925-492.694157 0-680.333406 187.63925-187.63925 492.694157-187.63925 680.333406 0 187.63925 187.63925 187.63925 492.694157 0 680.333406a480.252613 480.252613 0 0 1-340.279603 140.672988z m0-896.423373c-106.351488 0-212.928776 40.418082-293.990738 121.480044-162.123925 162.123925-162.123925 425.631753 0 587.755678s425.631753 162.123925 587.755678 0 162.123925-425.631753 0-587.755678a414.206307 414.206307 0 0 0-293.76494-121.480044z" p-id="818" fill="#000000"></path><path d="M960.324587 993.065491c-8.354576 0-16.709151-3.161191-23.031533-9.483573l-131.415215-131.415215c-12.870562-12.870562-12.870562-33.418302 0-46.288864 12.870562-12.870562 33.418302-12.870562 46.288864 0l131.415215 131.415215c12.870562 12.870562 12.870562 33.418302 0 46.288864-6.548181 6.096582-14.902756 9.483572-23.257331 9.483573z" p-id="819" fill="#000000"></path></svg>