<?xml version="1.0" standalone="no"?><!DOCTYPE svg PUBLIC "-//W3C//DTD SVG 1.1//EN" "http://www.w3.org/Graphics/SVG/1.1/DTD/svg11.dtd"><svg t="1626876785218" class="icon" viewBox="0 0 1024 1024" version="1.1" xmlns="http://www.w3.org/2000/svg" p-id="1448" xmlns:xlink="http://www.w3.org/1999/xlink" width="16" height="16"><defs><style type="text/css">@font-face { font-family: feedback-iconfont; src: url("//at.alicdn.com/t/font_1031158_1uhr8ri0pk5.eot?#iefix") format("embedded-opentype"), url("//at.alicdn.com/t/font_1031158_1uhr8ri0pk5.woff2") format("woff2"), url("//at.alicdn.com/t/font_1031158_1uhr8ri0pk5.woff") format("woff"), url("//at.alicdn.com/t/font_1031158_1uhr8ri0pk5.ttf") format("truetype"), url("//at.alicdn.com/t/font_1031158_1uhr8ri0pk5.svg#iconfont") format("svg"); }
</style></defs><path d="M312.280485 488.403969m-48.095259 0a48.095259 48.095259 0 1 0 96.190518 0 48.095259 48.095259 0 1 0-96.190518 0Z" p-id="1449"></path><path d="M524.531863 488.403969m-48.095259 0a48.095259 48.095259 0 1 0 96.190518 0 48.095259 48.095259 0 1 0-96.190518 0Z" p-id="1450"></path><path d="M737.009041 488.403969m-48.095259 0a48.095259 48.095259 0 1 0 96.190518 0 48.095259 48.095259 0 1 0-96.190518 0Z" p-id="1451"></path><path d="M524.531863 943.841235c-69.997795 0-137.060198-15.354355-199.606615-45.837266-15.354355-6.548181-91.674531-2.032194-162.575524 9.709372-11.515766 2.032194-23.483131-2.257993-31.160308-11.289967-7.677178-8.806174-10.16097-21.225138-6.548181-32.515105 15.805954-49.675854 26.192723-104.770893 22.805733-120.125248a452.434135 452.434135 0 0 1-78.35237-255.379052c0-251.088864 204.348401-455.437266 455.437265-455.437266S979.969129 237.315105 979.969129 488.403969 775.620728 943.841235 524.531863 943.841235z m-235.28291-116.512459c26.870121 0 50.804851 2.483793 65.481808 9.709372a382.955678 382.955678 0 0 0 169.801102 39.063285c213.831974 0 387.697464-173.865491 387.697464-387.697464S738.363837 100.706505 524.531863 100.706505 136.834399 274.571996 136.834399 488.403969c0 78.57817 23.483131 154.220948 67.739802 218.799559 17.16075 25.063727 11.289967 76.094377-0.903198 125.996031 27.095921-3.161191 58.03043-5.870783 85.57795-5.870783z m-140.672988-81.73936z" p-id="1452"></path></svg>