<?xml version="1.0" standalone="no"?><!DOCTYPE svg PUBLIC "-//W3C//DTD SVG 1.1//EN" "http://www.w3.org/Graphics/SVG/1.1/DTD/svg11.dtd"><svg t="1626876437539" class="icon" viewBox="0 0 1024 1024" version="1.1" xmlns="http://www.w3.org/2000/svg" p-id="1295" xmlns:xlink="http://www.w3.org/1999/xlink" width="16" height="16"><defs><style type="text/css">@font-face { font-family: feedback-iconfont; src: url("//at.alicdn.com/t/font_1031158_1uhr8ri0pk5.eot?#iefix") format("embedded-opentype"), url("//at.alicdn.com/t/font_1031158_1uhr8ri0pk5.woff2") format("woff2"), url("//at.alicdn.com/t/font_1031158_1uhr8ri0pk5.woff") format("woff"), url("//at.alicdn.com/t/font_1031158_1uhr8ri0pk5.ttf") format("truetype"), url("//at.alicdn.com/t/font_1031158_1uhr8ri0pk5.svg#iconfont") format("svg"); }
</style></defs><path d="M849.682911 953.776406h-239.347299c-18.741345 0-33.869901-15.128556-33.869901-33.869901v-250.637266h-128.705623v250.637266c0 18.741345-15.128556 33.869901-33.869901 33.869901H174.317089c-18.741345 0-33.869901-15.128556-33.8699-33.869901V510.532304H56.449835c-13.999559 0-26.418523-8.580375-31.611908-21.450937a33.869901 33.869901 0 0 1 8.354576-37.256891L461.533848 50.804851c28.224917-26.644322 72.707387-26.418523 100.932304 0l428.341345 401.245425c10.16097 9.483572 13.54796 24.160529 8.354576 37.25689-5.193385 12.870562-17.612348 21.450937-31.386108 21.450938h-83.997354v409.148401c-0.225799 18.741345-15.354355 33.869901-34.0957 33.869901z m-205.477398-67.739802h171.833296V476.662404c0-18.741345 15.128556-33.869901 33.869901-33.869901h32.063506L516.177288 100.254906c-2.257993-2.257993-5.870783-2.257993-8.128776 0L142.253583 442.792503h32.063506c18.741345 0 33.869901 15.128556 33.869901 33.869901v409.148401h171.833297v-250.637266c0-18.741345 15.128556-33.869901 33.8699-33.869901h196.445425c18.741345 0 33.869901 15.128556 33.869901 33.869901v250.863065z m-159.414333-810.619625z" p-id="1296"></path></svg>