<?xml version="1.0" standalone="no"?><!DOCTYPE svg PUBLIC "-//W3C//DTD SVG 1.1//EN" "http://www.w3.org/Graphics/SVG/1.1/DTD/svg11.dtd"><svg t="1626854122238" class="icon" viewBox="0 0 1024 1024" version="1.1" xmlns="http://www.w3.org/2000/svg" p-id="1443" width="32" height="32" xmlns:xlink="http://www.w3.org/1999/xlink"><defs><style type="text/css">@font-face { font-family: feedback-iconfont; src: url("//at.alicdn.com/t/font_1031158_1uhr8ri0pk5.eot?#iefix") format("embedded-opentype"), url("//at.alicdn.com/t/font_1031158_1uhr8ri0pk5.woff2") format("woff2"), url("//at.alicdn.com/t/font_1031158_1uhr8ri0pk5.woff") format("woff"), url("//at.alicdn.com/t/font_1031158_1uhr8ri0pk5.ttf") format("truetype"), url("//at.alicdn.com/t/font_1031158_1uhr8ri0pk5.svg#iconfont") format("svg"); }
</style></defs><path d="M918.573363 258.548606a212.591006 212.591006 0 0 0-303.329508 0L251.329539 627.264466a131.604972 131.604972 0 0 0 0 184.400611 127.699717 127.699717 0 0 0 182.053189 0l303.286827-307.298784a43.747396 43.747396 0 0 0 0-61.395736 42.402964 42.402964 0 0 0-60.670169 0l-303.372189 307.298783a42.488325 42.488325 0 0 1-60.648829 0 43.875437 43.875437 0 0 1 0-61.438416L675.999386 319.987022a127.593016 127.593016 0 0 1 182.031849 0 131.562292 131.562292 0 0 1 0 184.357931L493.988877 873.018132a212.505645 212.505645 0 0 1-303.329508 0 219.185126 219.185126 0 0 1 0-307.192083L675.999386 74.212016a43.832757 43.832757 0 0 0 0-61.438416 42.531005 42.531005 0 0 0-60.64883 0L129.903839 504.344953a306.87198 306.87198 0 0 0 0 430.154276 297.524975 297.524975 0 0 0 424.669847 0L918.573363 565.84739a219.334507 219.334507 0 0 0 0-307.298784z" p-id="1444" fill="#8a8a8a"></path></svg>