<?xml version="1.0" standalone="no"?><!DOCTYPE svg PUBLIC "-//W3C//DTD SVG 1.1//EN" "http://www.w3.org/Graphics/SVG/1.1/DTD/svg11.dtd"><svg t="1626854272762" class="icon" viewBox="0 0 1024 1024" version="1.1" xmlns="http://www.w3.org/2000/svg" p-id="2453" width="32" height="32" xmlns:xlink="http://www.w3.org/1999/xlink"><defs><style type="text/css">@font-face { font-family: feedback-iconfont; src: url("//at.alicdn.com/t/font_1031158_1uhr8ri0pk5.eot?#iefix") format("embedded-opentype"), url("//at.alicdn.com/t/font_1031158_1uhr8ri0pk5.woff2") format("woff2"), url("//at.alicdn.com/t/font_1031158_1uhr8ri0pk5.woff") format("woff"), url("//at.alicdn.com/t/font_1031158_1uhr8ri0pk5.ttf") format("truetype"), url("//at.alicdn.com/t/font_1031158_1uhr8ri0pk5.svg#iconfont") format("svg"); }
</style></defs><path d="M962.053319 361.982227l-149.996412 150.039134a212.242146 212.242146 0 0 1-227.408403 47.335809l70.747382-70.704661a126.648922 126.648922 0 0 0 96.615462-36.676707l150.039134-149.996412a127.31111 127.31111 0 1 0-179.98715-180.051233l-150.081856 150.060495a126.456673 126.456673 0 0 0-36.633985 96.615462l-70.704661 70.747382a212.178063 212.178063 0 0 1 47.335809-227.408403L661.975051 61.946681a212.178063 212.178063 0 0 1 300.078268 300.035546z m-660.052568 360.038383a42.465518 42.465518 0 0 1 0-59.960115l360.038383-360.081105a42.465518 42.465518 0 1 1 60.088281 60.002837L361.982227 721.999249a42.422796 42.422796 0 0 1-60.045559 0z m-29.905294-149.996412l-150.039134 149.996412a127.31111 127.31111 0 1 0 180.051233 180.029872l150.081855-150.039134a126.542117 126.542117 0 0 0 36.633986-96.615462l70.70466-70.70466a212.09262 212.09262 0 0 1-47.378531 227.365681l-149.996412 149.996412A212.199424 212.199424 0 0 1 61.946681 662.060495l149.996412-150.039134a212.028537 212.028537 0 0 1 227.365681-47.378531l-70.70466 70.704661a126.713004 126.713004 0 0 0-96.679545 36.676707z" p-id="2454" fill="#8a8a8a"></path></svg>